<svg id="visual" viewBox="0 0 650 400" width="650" height="400" xmlns="http://www.w3.org/2000/svg" xmlns:xlink="http://www.w3.org/1999/xlink" version="1.1"><path d="M0 315L21.7 314.3C43.3 313.7 86.7 312.3 130 315.2C173.3 318 216.7 325 260 319.5C303.3 314 346.7 296 390 288.8C433.3 281.7 476.7 285.3 520 290.5C563.3 295.7 606.7 302.3 628.3 305.7L650 309L650 0L628.3 0C606.7 0 563.3 0 520 0C476.7 0 433.3 0 390 0C346.7 0 303.3 0 260 0C216.7 0 173.3 0 130 0C86.7 0 43.3 0 21.7 0L0 0Z" fill="#fa7268"></path><path d="M0 258L21.7 258.2C43.3 258.3 86.7 258.7 130 255.2C173.3 251.7 216.7 244.3 260 240.5C303.3 236.7 346.7 236.3 390 239.7C433.3 243 476.7 250 520 255.7C563.3 261.3 606.7 265.7 628.3 267.8L650 270L650 0L628.3 0C606.7 0 563.3 0 520 0C476.7 0 433.3 0 390 0C346.7 0 303.3 0 260 0C216.7 0 173.3 0 130 0C86.7 0 43.3 0 21.7 0L0 0Z" fill="#ef5f67"></path><path d="M0 201L21.7 197.8C43.3 194.7 86.7 188.3 130 183.2C173.3 178 216.7 174 260 176.2C303.3 178.3 346.7 186.7 390 187.3C433.3 188 476.7 181 520 181.2C563.3 181.3 606.7 188.7 628.3 192.3L650 196L650 0L628.3 0C606.7 0 563.3 0 520 0C476.7 0 433.3 0 390 0C346.7 0 303.3 0 260 0C216.7 0 173.3 0 130 0C86.7 0 43.3 0 21.7 0L0 0Z" fill="#e34c67"></path><path d="M0 116L21.7 119.7C43.3 123.3 86.7 130.7 130 130.5C173.3 130.3 216.7 122.7 260 117.3C303.3 112 346.7 109 390 110C433.3 111 476.7 116 520 115.8C563.3 115.7 606.7 110.3 628.3 107.7L650 105L650 0L628.3 0C606.7 0 563.3 0 520 0C476.7 0 433.3 0 390 0C346.7 0 303.3 0 260 0C216.7 0 173.3 0 130 0C86.7 0 43.3 0 21.7 0L0 0Z" fill="#d53867"></path><path d="M0 73L21.7 70.2C43.3 67.3 86.7 61.7 130 58.5C173.3 55.3 216.7 54.7 260 53.2C303.3 51.7 346.7 49.3 390 53.8C433.3 58.3 476.7 69.7 520 73.5C563.3 77.3 606.7 73.7 628.3 71.8L650 70L650 0L628.3 0C606.7 0 563.3 0 520 0C476.7 0 433.3 0 390 0C346.7 0 303.3 0 260 0C216.7 0 173.3 0 130 0C86.7 0 43.3 0 21.7 0L0 0Z" fill="#c62368"></path></svg>