<svg xmlns="http://www.w3.org/2000/svg" viewBox="0 0 300 300">
  <path fill="#1927f0" d="M190.5 146.4c.9 4.3 1.3 8.7 1.3 13.1v45.8c0 .6-.5 1.1-1.1 1.1h-14.9c-.6 0-1.1-.5-1.1-1.1v-43.8c0-2.8-.2-5.7-.6-8.5-.3-2.4-1.1-4.8-2.3-6.9-1.1-1.9-2.7-3.5-4.7-4.6-2.5-1.3-5.4-1.9-8.2-1.8-6.8 0-11.6 2.1-14.5 6.1s-4.4 9.7-4.4 16.4v43c0 .6-.5 1.1-1.1 1.1h-15c-.6 0-1.2-.5-1.2-1.1V164c0-3.4-.2-6.8-.6-10.1-.3-2.7-1-5.3-2.2-7.7-1-2-2.6-3.7-4.5-4.8-2.5-1.3-5.3-1.9-8.1-1.8-2.5 0-5 .5-7.3 1.5s-4.4 2.5-6.1 4.4c-1.9 2.2-3.4 4.8-4.2 7.6-1.1 3.6-1.7 7.4-1.6 11.2v40.8c0 .6-.5 1.2-1.2 1.1H71.8c-.6 0-1.1-.5-1.2-1.1v-78.6c0-.6.5-1.2 1.2-1.2h13.9c.6 0 1.1.5 1.2 1.1v8.5c.3-.4.6-.7.9-1.1 1.6-1.9 3.5-3.5 5.5-4.9 2.5-1.7 5.1-3 7.9-3.9 3.2-1.1 6.7-1.7 10.1-1.6 6 0 11.2 1.3 15.4 3.8 3.8 2.4 7 5.7 9.2 9.6 2.5-4.1 6-7.4 10.2-9.6 4.5-2.4 9.5-3.7 14.6-3.8 6.2 0 11.4 1 15.5 3.1 3.8 1.9 7.1 4.7 9.6 8.3 2.3 3.6 3.9 7.5 4.7 11.6zm23.9-5.2c.6 0 1.2-.3 1.7-.6 0 0 10.3-6.9 16.6-12.7s12.6-14 12.6-25c.2-9.9-7.7-18.1-17.6-18.3-8.8 0-13.2 7.6-13.2 7.6h-.1s-4.4-7.6-13.2-7.6c-9.9.2-17.8 8.4-17.6 18.3 0 11 6.4 19.1 12.6 25 6.2 5.9 16.5 12.7 16.5 12.7.4.3 1 .5 1.7.6z"/>
</svg>
