<svg data-name="Calque 1" xmlns="http://www.w3.org/2000/svg" viewBox="0 0 286 102"><path d="M85.05 53a33.15 33.15 0 0 1 .64 6.58v23a.57.57 0 0 1-.58.57h-7.5a.57.57 0 0 1-.58-.57v-22a30.9 30.9 0 0 0-.28-4.26 9.55 9.55 0 0 0-1.14-3.45 6.31 6.31 0 0 0-2.37-2.33 8.27 8.27 0 0 0-4.13-.89c-3.39 0-5.84 1-7.28 3.09A14.21 14.21 0 0 0 59.61 61v21.59a.57.57 0 0 1-.58.57h-7.5a.57.57 0 0 1-.58-.57V61.92a41.8 41.8 0 0 0-.29-5.1A11.77 11.77 0 0 0 49.55 53a5.87 5.87 0 0 0-2.28-2.43 8.1 8.1 0 0 0-4.08-.88 9.5 9.5 0 0 0-3.65.75 8.57 8.57 0 0 0-3.08 2.23 11 11 0 0 0-2.14 3.84 17.68 17.68 0 0 0-.8 5.61v20.5a.57.57 0 0 1-.58.57h-7.5a.57.57 0 0 1-.58-.57V43.09a.58.58 0 0 1 .58-.58h7a.58.58 0 0 1 .58.58v4.26c.13-.18.28-.36.44-.55a13.91 13.91 0 0 1 2.78-2.48 17.12 17.12 0 0 1 4-2 14.9 14.9 0 0 1 5.07-.82A14.59 14.59 0 0 1 53 43.43a13.76 13.76 0 0 1 4.61 4.81 13.13 13.13 0 0 1 5.15-4.83 15.78 15.78 0 0 1 7.35-1.9 17 17 0 0 1 7.77 1.56 12.71 12.71 0 0 1 4.79 4.15A15.83 15.83 0 0 1 85.05 53zm41.06 26.22c0 1.15.13 2.26.24 3.3a.55.55 0 0 1-.14.44.56.56 0 0 1-.43.19h-6.67a.59.59 0 0 1-.58-.53c-.12-1.48-.2-3-.23-4.48a14.31 14.31 0 0 1-5.3 4.39 19.42 19.42 0 0 1-8.16 1.64 19 19 0 0 1-5.42-.78A13.57 13.57 0 0 1 94.87 81a11.33 11.33 0 0 1-3.11-3.91A13.3 13.3 0 0 1 92.42 65a13.4 13.4 0 0 1 4.87-4.4 23.39 23.39 0 0 1 7.09-2.4 49.59 49.59 0 0 1 8.56-.71h4.93v-1.07a7.63 7.63 0 0 0-4.87-7.09 10.67 10.67 0 0 0-4-.67 15.09 15.09 0 0 0-3.65.4 16.22 16.22 0 0 0-2.86 1 12.31 12.31 0 0 0-2.31 1.39c-.72.56-1.42 1.09-2.09 1.59a.58.58 0 0 1-.76-.06l-4.5-4.67a.54.54 0 0 1-.16-.42.59.59 0 0 1 .18-.41 21.49 21.49 0 0 1 7.57-4.48 25.79 25.79 0 0 1 8.52-1.49 23.57 23.57 0 0 1 7.65 1.11 15.27 15.27 0 0 1 5.33 3 12.09 12.09 0 0 1 3.1 4.42 13.63 13.63 0 0 1 1 5.17v20.21c-.02 1.38.03 2.66.09 3.81zm-11.67-15.06a52.55 52.55 0 0 0-5.39.29 20.79 20.79 0 0 0-5 1.1 9.19 9.19 0 0 0-3.53 2.19 4.69 4.69 0 0 0-1.3 3.43 4.86 4.86 0 0 0 2 4.43 10.76 10.76 0 0 0 5.97 1.4 11.4 11.4 0 0 0 5-1 9.27 9.27 0 0 0 3.3-2.55A9.75 9.75 0 0 0 117.3 70a13.91 13.91 0 0 0 .57-3.88v-1.96zm41.68 10.76a.56.56 0 0 0-.57 0 7.61 7.61 0 0 1-2.4.85 15.35 15.35 0 0 1-2.65.24 5.15 5.15 0 0 1-3-.69 4.2 4.2 0 0 1-1.47-1.83 8.42 8.42 0 0 1-.58-2.73c-.05-1.05-.08-2.15-.08-3.26V50.16h10.17a.57.57 0 0 0 .58-.57v-6.5a.58.58 0 0 0-.58-.58h-10.13V32a.58.58 0 0 0-.58-.58h-7.5a.58.58 0 0 0-.58.58v10.51h-8.08a.58.58 0 0 0-.58.58v6.5a.57.57 0 0 0 .58.57h8.08v20c0 1.63.08 3.26.21 4.84a10.71 10.71 0 0 0 1.42 4.54 8.8 8.8 0 0 0 3.73 3.34 15.62 15.62 0 0 0 7 1.28 26.39 26.39 0 0 0 3.37-.3 10.61 10.61 0 0 0 3.67-1.11.6.6 0 0 0 .29-.51v-6.82a.57.57 0 0 0-.32-.5zm15.74-21.18a10.38 10.38 0 0 1 3.63-2.93 11.64 11.64 0 0 1 5.12-1.06 11.85 11.85 0 0 1 5.2 1.06A15.41 15.41 0 0 1 190 54a.58.58 0 0 0 .8 0l5.67-5.16a.59.59 0 0 0 .19-.41.56.56 0 0 0-.15-.41 19 19 0 0 0-7.09-4.86 23.37 23.37 0 0 0-8.51-1.58 22.92 22.92 0 0 0-8.67 1.58 19.38 19.38 0 0 0-11 11.2A23.69 23.69 0 0 0 159.7 63a23.28 23.28 0 0 0 1.54 8.59 19.2 19.2 0 0 0 4.38 6.7 20 20 0 0 0 6.74 4.33 23.06 23.06 0 0 0 8.58 1.55 24.26 24.26 0 0 0 8.41-1.46 17.48 17.48 0 0 0 7-4.82.59.59 0 0 0 0-.8L191 71.76a.57.57 0 0 0-.84 0 13.36 13.36 0 0 1-4 3.15A11.47 11.47 0 0 1 181 76a12.35 12.35 0 0 1-5-1 11.36 11.36 0 0 1-3.8-2.74 12.42 12.42 0 0 1-2.47-4.11 14.07 14.07 0 0 1-.88-5 17.11 17.11 0 0 1 .76-5.12 13.39 13.39 0 0 1 2.25-4.29zm64.87-3.58a13.66 13.66 0 0 0-3.26-4.91 13 13 0 0 0-4.8-2.84 17.81 17.81 0 0 0-5.64-.9 16.92 16.92 0 0 0-8.37 2 12.39 12.39 0 0 0-4.22 3.72V19.58a.58.58 0 0 0-.58-.57h-7.5a.58.58 0 0 0-.58.57v63a.57.57 0 0 0 .58.57h7.5a.57.57 0 0 0 .58-.57V62.25a18.39 18.39 0 0 1 .8-5.73 10.77 10.77 0 0 1 2.21-3.92 8.5 8.5 0 0 1 3.28-2.22 11.56 11.56 0 0 1 4.13-.72 10.06 10.06 0 0 1 3.19.52 7 7 0 0 1 2.66 1.61 8.16 8.16 0 0 1 1.86 3 12.72 12.72 0 0 1 .71 4.5v23.3a.57.57 0 0 0 .58.57h7.5a.57.57 0 0 0 .58-.57V57.17a18.73 18.73 0 0 0-1.21-7.01zm9.4-3.94a1.64 1.64 0 0 0 .86-.31 79 79 0 0 0 8.31-6.4c3.13-2.94 6.34-7 6.34-12.53a9 9 0 0 0-8.84-9.2 8.17 8.17 0 0 0-6.64 3.82h-.06a8.19 8.19 0 0 0-6.65-3.82 9 9 0 0 0-8.84 9.2c0 5.51 3.21 9.59 6.35 12.53a79 79 0 0 0 8.31 6.4 1.64 1.64 0 0 0 .86.31z" style="fill:#1927f0"/></svg>